<?xml version="1.0" standalone="no"?>
<!DOCTYPE svg PUBLIC "-//W3C//DTD SVG 20010904//EN"
 "http://www.w3.org/TR/2001/REC-SVG-20010904/DTD/svg10.dtd">
<svg version="1.0" xmlns="http://www.w3.org/2000/svg"
 width="2686.000000pt" height="2686.000000pt" viewBox="0 0 2686.000000 2686.000000"
 preserveAspectRatio="xMidYMid meet">
<metadata>
Created by potrace 1.14, written by Peter Selinger 2001-2017
</metadata>
<g transform="translate(0.000000,2686.000000) scale(0.100000,-0.100000)"
fill="#000000" stroke="none">
<path d="M11462 25108 l3 -1743 27 -73 c57 -157 139 -251 278 -321 123 -62
203 -76 415 -75 122 0 212 6 280 18 213 36 511 123 744 216 57 22 105 39 108
37 6 -7 104 -2841 101 -2927 l-3 -74 -105 -13 c-332 -41 -665 -132 -1015 -278
-88 -37 -320 -145 -515 -240 -502 -245 -669 -313 -925 -376 -215 -52 -317 -64
-570 -63 -183 0 -259 5 -375 22 -370 56 -685 165 -968 336 -142 85 -260 171
-522 380 -248 199 -311 244 -435 315 -451 258 -973 199 -1461 -164 -110 -83
-342 -318 -448 -455 -526 -681 -973 -1752 -1336 -3200 -246 -983 -412 -1903
-565 -3130 -98 -795 -132 -1195 -142 -1670 -15 -764 73 -1294 288 -1740 260
-539 719 -894 1373 -1060 681 -173 1413 -111 1983 169 798 392 1303 1146 1621
2416 70 280 119 513 212 1020 97 526 119 640 170 850 140 580 315 813 557 737
96 -30 190 -100 381 -285 306 -295 445 -404 616 -482 141 -64 220 -80 396 -80
130 0 168 4 235 23 128 36 247 101 415 228 277 209 398 278 601 345 121 40
329 83 462 97 l77 8 0 -2077 0 -2078 -32 -5 c-18 -3 -78 -13 -133 -22 -134
-22 -355 -76 -490 -121 -627 -206 -965 -558 -1060 -1101 -24 -140 -40 -539
-65 -1622 -24 -1036 -60 -3202 -75 -4455 -3 -258 -8 -574 -11 -701 l-6 -230
-87 -27 c-47 -14 -115 -43 -151 -64 -83 -49 -204 -170 -253 -253 -100 -173
-128 -404 -71 -599 51 -177 202 -359 365 -439 114 -57 205 -75 339 -69 134 6
237 38 342 107 137 90 235 216 291 377 42 121 49 285 18 415 -66 280 -276 487
-549 542 l-54 11 1 255 c1 255 12 1034 31 2270 37 2385 75 4023 101 4326 42
504 296 828 809 1033 197 79 505 159 681 178 l59 6 0 -812 c0 -790 0 -811 19
-811 10 0 79 9 153 20 330 49 682 73 758 53 l35 -9 -93 -60 c-439 -281 -553
-364 -708 -519 -219 -218 -342 -436 -411 -725 -34 -145 -43 -412 -19 -584 54
-385 214 -746 456 -1031 38 -44 86 -97 107 -118 l40 -38 61 69 61 69 -45 44
c-66 64 -159 181 -226 284 -257 395 -352 913 -242 1328 29 111 124 305 196
402 78 106 249 270 383 370 67 50 209 146 317 214 221 140 280 186 308 242 58
113 -12 209 -175 240 -83 16 -411 5 -605 -21 -85 -11 -161 -20 -167 -20 -10 0
-13 149 -13 714 l0 714 78 8 c42 5 232 8 422 9 380 0 452 -7 635 -66 317 -101
474 -341 537 -824 23 -175 11 -1438 -22 -2465 -26 -807 -83 -2057 -119 -2650
-5 -74 -8 -136 -7 -137 1 -2 43 -4 92 -5 l89 -3 22 390 c70 1268 113 2431 134
3605 13 715 8 1169 -16 1336 -66 480 -257 772 -590 904 -78 31 -201 63 -315
82 -82 14 -862 18 -912 5 l-28 -7 0 2076 0 2077 104 -6 c280 -17 603 -122 829
-270 75 -48 139 -101 365 -300 194 -170 335 -228 557 -228 301 -1 495 80 980
405 218 147 289 181 380 181 81 0 102 -11 158 -88 66 -88 131 -293 182 -571
14 -76 55 -344 91 -595 103 -724 162 -1043 259 -1401 195 -729 485 -1268 892
-1661 409 -395 919 -624 1577 -706 186 -23 603 -23 791 1 522 65 958 227 1272
472 273 213 449 580 573 1194 157 773 213 1748 214 3675 1 958 -3 1099 -40
1515 -83 942 -294 1757 -714 2759 -562 1341 -1169 2213 -1752 2516 -184 96
-332 135 -510 135 -248 0 -448 -88 -643 -285 -93 -94 -132 -143 -383 -480
-231 -309 -382 -466 -580 -603 -172 -119 -425 -225 -652 -274 -90 -19 -135
-22 -315 -22 -179 0 -225 3 -311 22 -274 59 -419 115 -994 380 -465 214 -669
294 -959 378 -381 109 -720 155 -1143 156 l-238 0 0 61 c0 34 -16 525 -36
1090 -19 566 -34 1030 -32 1033 3 2 51 -5 109 -16 137 -26 545 -85 734 -106
229 -25 689 -30 844 -10 271 36 444 132 493 274 10 29 13 461 16 2140 l2 2102
-90 0 -90 0 -2 -2092 c-3 -2019 -4 -2094 -22 -2120 -28 -43 -140 -93 -253
-114 -138 -27 -643 -27 -883 -1 -221 24 -477 61 -692 99 l-178 31 0 31 c0 66
-40 1246 -46 1334 l-6 92 -90 0 -91 0 6 -77 c4 -43 9 -188 13 -323 l6 -245
-93 -39 c-373 -155 -724 -244 -999 -253 -174 -6 -257 6 -360 53 -77 35 -159
121 -192 201 l-23 58 -3 1733 -2 1732 -90 0 -90 0 2 -1742z m5339 -6358 c22
-22 29 -37 27 -57 -3 -24 -9 -29 -46 -37 -35 -7 -46 -6 -63 10 -29 26 -23 84
11 101 35 18 38 17 71 -17z m-1111 -80 c43 -43 10 -110 -53 -110 -61 0 -76 46
-31 99 30 36 56 39 84 11z m-677 -15 c-3 -13 -53 -20 -53 -7 0 15 13 23 35 20
11 -2 19 -7 18 -13z m2 -55 c7 -11 -42 -37 -51 -27 -4 3 -4 13 -1 22 7 17 42
21 52 5z m1865 -11 c20 -36 8 -61 -35 -76 -22 -8 -56 -12 -75 -11 -32 3 -35 6
-38 37 -4 41 6 52 55 61 65 13 82 11 93 -11z m-4362 -11 c-7 -20 -48 -23 -48
-4 0 11 9 16 26 16 16 0 24 -5 22 -12z m2882 -57 c16 -16 32 -41 36 -57 4 -16
3 -96 -3 -179 -7 -94 -8 -156 -2 -167 21 -39 198 -2 240 50 22 28 22 37 3 200
-6 47 -3 60 26 117 46 91 67 87 136 -20 39 -63 64 -142 64 -209 0 -45 -17
-211 -64 -614 -16 -138 -38 -191 -95 -229 -40 -27 -93 -30 -112 -6 -19 22 -15
91 16 298 30 202 32 293 9 302 -9 3 -59 -7 -112 -23 -88 -27 -96 -32 -104 -59
-5 -17 -6 -137 -3 -268 6 -218 5 -240 -11 -258 -27 -30 -84 -25 -116 9 -42 46
-54 92 -68 260 -17 213 11 658 50 793 13 44 46 89 66 89 9 0 28 -13 44 -29z
m-2882 -3 c-3 -7 -17 -14 -31 -16 -21 -3 -26 0 -21 12 7 19 58 22 52 4z m1531
-15 c35 -43 7 -96 -50 -96 -35 0 -69 31 -69 64 0 56 83 78 119 32z m969 11
c30 -21 19 -34 -28 -34 -42 0 -54 9 -44 34 8 20 43 21 72 0z m1917 -88 c41
-140 45 -282 14 -437 -47 -232 -156 -418 -322 -551 -111 -87 -194 -28 -266
189 -84 248 -131 752 -77 812 26 28 65 26 99 -4 15 -14 27 -29 27 -34 0 -4 9
-95 20 -202 33 -326 87 -489 160 -489 64 0 104 64 152 242 33 123 42 270 24
415 -6 58 -5 74 5 77 21 5 133 33 141 35 4 0 14 -23 23 -53z m-5595 12 c44
-43 94 -153 124 -275 20 -79 63 -367 113 -759 7 -57 -19 -84 -81 -84 -24 0
-48 6 -54 13 -6 7 -21 89 -32 182 -24 194 -66 342 -111 388 -34 34 -41 34 -83
-3 -48 -43 -80 -136 -122 -363 -20 -106 -41 -198 -46 -204 -6 -8 -34 -13 -68
-13 -81 0 -87 9 -71 113 44 280 133 715 171 840 54 173 173 249 260 165z
m1185 -1 c26 -20 10 -37 -35 -37 -42 0 -54 9 -44 34 8 20 53 21 79 3z m664
-16 c10 -6 41 -44 70 -85 55 -81 93 -116 122 -116 11 0 47 29 81 65 79 84 169
145 214 145 27 0 37 -6 51 -32 15 -28 18 -58 18 -193 0 -88 -6 -200 -14 -250
-32 -216 -88 -435 -112 -435 -18 0 -29 50 -44 203 -27 257 -41 324 -72 334 -7
3 -26 -18 -44 -46 -53 -88 -88 -92 -163 -21 -29 28 -60 50 -69 50 -47 0 -89
-119 -108 -306 -15 -144 -30 -197 -78 -272 -44 -67 -71 -79 -93 -39 -27 46
-10 343 32 597 54 319 121 448 209 401z m1247 -11 c68 -34 167 -133 243 -245
107 -156 341 -552 341 -576 0 -32 -30 -89 -57 -106 -43 -28 -63 -8 -152 163
-118 225 -307 555 -337 588 -14 15 -31 25 -37 23 -9 -3 -13 -115 -15 -419 -2
-395 -3 -416 -22 -433 -18 -16 -22 -16 -70 0 -33 11 -55 25 -62 39 -6 16 -7
172 0 486 l10 463 24 19 c31 23 82 23 134 -2z m-4738 -25 c32 -10 66 -29 87
-51 68 -67 42 -96 -106 -118 -59 -9 -126 -16 -149 -16 -75 0 -80 -10 -80 -184
-1 -243 -13 -348 -47 -415 -49 -97 -91 -77 -114 53 -9 53 -9 119 1 293 9 169
9 228 0 237 -7 7 -54 11 -125 12 -92 0 -118 4 -142 19 -40 26 -52 45 -53 82 0
40 25 58 106 80 131 34 519 39 622 8z m1118 -11 c8 -33 -10 -197 -37 -328 -74
-364 -200 -629 -331 -697 -45 -23 -124 -25 -174 -4 -118 49 -243 199 -193 231
19 12 88 7 104 -6 9 -8 22 -28 30 -46 19 -45 48 -58 130 -57 83 1 131 19 179
69 70 72 108 237 126 540 12 210 17 259 32 297 10 25 14 27 69 27 55 0 59 -2
65 -26z m4219 6 c22 -24 33 -169 34 -436 1 -207 -3 -244 -29 -244 -20 0 -74
62 -90 105 -18 47 -50 264 -57 381 -10 177 5 214 81 214 30 0 48 -6 61 -20z
m-5000 -12 c3 -13 10 -75 15 -138 10 -124 4 -151 -41 -165 -38 -12 -47 12 -61
157 -13 154 -10 168 48 168 27 0 35 -5 39 -22z m1903 -38 c132 -69 205 -162
459 -588 130 -217 134 -225 123 -257 -17 -53 -48 -85 -79 -85 -35 0 -50 17
-96 110 -21 41 -94 176 -163 300 -188 339 -229 397 -253 359 -5 -8 -9 -192 -8
-417 0 -300 -2 -407 -11 -418 -25 -29 -117 -7 -139 34 -5 10 -6 179 -1 437 5
231 9 439 10 463 0 56 26 82 80 82 23 0 57 -9 78 -20z m2089 -21 c24 -51 36
-228 30 -459 -7 -272 -31 -407 -77 -435 -21 -13 -61 6 -80 38 -26 42 -25 76 6
210 29 125 34 232 20 417 -9 124 -2 169 34 228 24 39 49 39 67 1z m-1478 -23
c10 -21 15 -103 19 -321 3 -160 2 -304 -2 -318 -9 -38 -29 -33 -74 18 -33 38
-41 57 -55 127 -30 158 -40 244 -41 364 -1 108 1 124 18 143 16 18 29 21 70
19 45 -3 52 -6 65 -32z m5354 -71 c-4 -156 -78 -435 -158 -596 -111 -222 -228
-286 -383 -208 -106 52 -191 154 -151 180 8 5 29 9 47 9 33 0 56 -18 93 -71
14 -20 26 -24 92 -27 43 -2 91 1 112 8 122 40 173 176 195 521 17 269 18 271
98 267 l57 -3 -2 -80z m-734 53 c4 -13 11 -68 15 -124 6 -92 5 -102 -13 -118
-28 -26 -63 -17 -72 18 -16 60 -22 215 -9 231 20 24 69 19 79 -7z m-7106 -255
c3 -5 8 -29 12 -56 7 -47 7 -47 -29 -62 -47 -20 -55 -19 -61 8 -15 59 -11 79
20 98 33 19 51 23 58 12z m7137 -69 c18 -47 12 -64 -26 -80 -44 -18 -54 -11
-61 43 -5 35 -3 39 23 50 44 17 54 15 64 -13z m-7112 -136 c12 -44 6 -55 -35
-69 -41 -13 -49 -7 -58 43 -6 34 -5 39 16 47 47 19 68 13 77 -21z m7125 5 c2
-5 7 -21 11 -36 6 -25 3 -29 -31 -43 -34 -15 -38 -15 -50 2 -21 28 -16 63 10
74 28 11 55 12 60 3z m-7083 -119 c16 -41 12 -62 -15 -80 -35 -23 -70 -12 -84
27 -16 45 -15 48 22 64 47 21 66 18 77 -11z m7126 1 c21 -32 15 -57 -19 -73
-37 -18 -63 -8 -76 30 -13 36 -11 39 32 55 44 16 45 16 63 -12z m-3669 -236
c52 -25 55 -54 11 -79 -25 -13 -31 -13 -55 0 -31 17 -42 62 -22 86 15 18 14
18 66 -7z m-4189 -31 c19 -19 14 -57 -13 -83 -33 -34 -61 -32 -80 5 -30 58
-14 90 45 90 20 0 41 -5 48 -12z"/>
<path d="M11241 18197 c-12 -16 -51 -123 -51 -143 0 -9 15 -12 48 -11 26 1 54
-2 63 -6 26 -13 28 12 8 79 -22 70 -49 103 -68 81z"/>
</g>
</svg>
